<svg width="22" height="26" viewBox="0 0 22 26" fill="none" xmlns="http://www.w3.org/2000/svg">
<path d="M0.785714 23.6696C0.57733 23.6696 0.37748 23.7528 0.23013 23.9007C0.0827803 24.0487 0 24.2494 0 24.4586C0 24.6679 0.0827803 24.8686 0.23013 25.0165C0.37748 25.1645 0.57733 25.2476 0.785714 25.2476H21.2143C21.4227 25.2476 21.6225 25.1645 21.7699 25.0165C21.9172 24.8686 22 24.6679 22 24.4586C22 24.2494 21.9172 24.0487 21.7699 23.9007C21.6225 23.7528 21.4227 23.6696 21.2143 23.6696H18.8571V3.94484C18.8571 3.31708 18.6088 2.71503 18.1668 2.27113C17.7247 1.82724 17.1252 1.57786 16.5 1.57786H15.7143V0.788872C15.7143 0.675937 15.6901 0.564322 15.6434 0.461571C15.5968 0.358819 15.5287 0.267327 15.4438 0.193277C15.3588 0.119227 15.2591 0.0643456 15.1512 0.0323423C15.0434 0.000338948 14.9299 -0.00804045 14.8186 0.00777043L3.81857 1.58575C3.63113 1.61237 3.45956 1.70604 3.33541 1.84955C3.21126 1.99306 3.14289 2.17676 3.14286 2.36685V23.6696H0.785714ZM15.7143 3.15585H16.5C16.7084 3.15585 16.9082 3.23897 17.0556 3.38694C17.2029 3.5349 17.2857 3.73558 17.2857 3.94484V23.6696H15.7143V3.15585ZM11.7857 15.7797C11.352 15.7797 11 15.0728 11 14.2017C11 13.3307 11.352 12.6237 11.7857 12.6237C12.2194 12.6237 12.5714 13.3307 12.5714 14.2017C12.5714 15.0728 12.2194 15.7797 11.7857 15.7797Z" fill="#333333"/>
</svg>
