<svg width="29" height="29" viewBox="0 0 29 29" fill="none" xmlns="http://www.w3.org/2000/svg">
<path d="M2.71875 27.1874C2.4784 27.1874 2.24789 27.2828 2.07793 27.4528C1.90798 27.6228 1.8125 27.8533 1.8125 28.0936C1.8125 28.334 1.90798 28.5645 2.07793 28.7344C2.24789 28.9044 2.4784 28.9999 2.71875 28.9999H26.2812C26.5216 28.9999 26.7521 28.9044 26.9221 28.7344C27.092 28.5645 27.1875 28.334 27.1875 28.0936C27.1875 27.8533 27.092 27.6228 26.9221 27.4528C26.7521 27.2828 26.5216 27.1874 26.2812 27.1874H23.5625V4.53111C23.5625 3.81006 23.2761 3.11853 22.7662 2.60867C22.2563 2.0988 21.5648 1.81236 20.8438 1.81236H19.9375V0.906113C19.9375 0.776394 19.9096 0.64819 19.8558 0.530168C19.802 0.412146 19.7234 0.307056 19.6255 0.222001C19.5275 0.136946 19.4125 0.0739085 19.2881 0.0371489C19.1637 0.000389322 19.0328 -0.00923541 18.9044 0.00892526L6.21688 1.82143C6.00068 1.85199 5.80278 1.95959 5.65959 2.12443C5.5164 2.28927 5.43753 2.50026 5.4375 2.71861V27.1874H2.71875ZM19.9375 3.62486H20.8438C21.0841 3.62486 21.3146 3.72034 21.4846 3.8903C21.6545 4.06025 21.75 4.29076 21.75 4.53111V27.1874H19.9375V3.62486ZM15.4062 18.1249C14.906 18.1249 14.5 17.3129 14.5 16.3124C14.5 15.3119 14.906 14.4999 15.4062 14.4999C15.9065 14.4999 16.3125 15.3119 16.3125 16.3124C16.3125 17.3129 15.9065 18.1249 15.4062 18.1249Z" fill="white"/>
</svg>
